<svg width="569" height="284" viewBox="0 0 569 284" fill="none" xmlns="http://www.w3.org/2000/svg">
<path d="M94.166 93.036C69.0689 76.4117 42.8341 61.4959 14.9082 50.8958C35.2316 44.7338 55.6416 34.4701 75.3841 25.7887C105.554 12.5222 136.311 30.3796 158.701 50.3864C180.284 69.6731 202.811 87.3995 228.083 101.187C244.344 110.058 258.719 113.255 277.069 109.879C278.065 109.696 290.505 105.615 291.446 108.122C293.071 112.449 282.588 129.084 280.062 132.614C265.705 152.67 241.932 155.119 217.877 157.05C189.036 159.365 164.169 153.268 141.964 135.747C124.921 122.299 112.527 105.198 94.166 93.036Z" fill="#149494"/>
<path d="M141.778 238.615C121.029 240.025 100.284 242.736 80.2248 248.274C89.5009 237.269 97.2536 224.168 105.231 212.123C117.421 193.716 141.885 190.723 162.381 192.067C182.139 193.362 201.839 193.507 221.6 190.603C234.316 188.734 243.774 184.748 252.988 175.911C253.489 175.431 259.049 168.54 260.549 169.433C263.139 170.976 263.515 183.416 263.422 186.173C262.891 201.841 260.353 213.625 247.317 223.956C231.688 236.342 204.97 241.65 185.534 241.484C170.615 241.356 156.958 237.583 141.778 238.615Z" fill="#89DCDC"/>
<path d="M107.301 173.387C81.5192 167.731 55.2798 163.661 28.8722 163.28C44.0853 153.168 58.1869 139.962 72.1871 128.121C93.5815 110.027 124.451 115.075 148.945 123.997C172.558 132.597 196.508 139.774 221.617 143.259C237.773 145.502 250.714 144.007 265.081 136.514C265.861 136.107 275.084 129.687 276.595 131.309C279.202 134.109 275.239 149.4 274.146 152.726C267.931 171.626 260.651 185.081 241.096 193.035C217.652 202.571 183.213 199.544 159.591 192.433C141.46 186.976 126.162 177.526 107.301 173.387Z" fill="#26C4C4"/>
<path d="M329.672 146.141C329.62 145.984 329.776 145.594 330.141 144.969C330.505 144.292 330.896 143.484 331.312 142.547C331.781 141.557 332.224 140.464 332.641 139.266C333.109 138.016 333.422 136.74 333.578 135.438C333.786 134.135 333.786 132.833 333.578 131.531C333.37 130.229 332.823 128.979 331.938 127.781C331.417 127.156 330.635 126.818 329.594 126.766C328.604 126.661 327.458 126.818 326.156 127.234C324.906 127.599 323.578 128.198 322.172 129.031C320.818 129.813 319.568 130.75 318.422 131.844C317.276 132.885 316.286 134.057 315.453 135.359C314.672 136.661 314.229 137.99 314.125 139.344C314.021 140.438 314.047 141.453 314.203 142.391C314.411 143.328 314.672 144.188 314.984 144.969C315.297 145.75 315.635 146.479 316 147.156C316.365 147.833 316.703 148.432 317.016 148.953C317.432 149.682 318.083 150.49 318.969 151.375C319.854 152.26 320.818 153.276 321.859 154.422C322.901 155.516 323.943 156.766 324.984 158.172C326.026 159.578 326.938 161.167 327.719 162.938C328.5 164.708 329.047 166.688 329.359 168.875C329.672 171.063 329.646 173.484 329.281 176.141C328.708 179.995 327.797 183.198 326.547 185.75C325.297 188.354 323.917 190.438 322.406 192C320.948 193.563 319.464 194.682 317.953 195.359C316.443 196.089 315.193 196.557 314.203 196.766C313.422 196.922 312.484 197.052 311.391 197.156C310.349 197.313 309.229 197.286 308.031 197.078C306.885 196.922 305.714 196.557 304.516 195.984C303.318 195.464 302.25 194.63 301.312 193.484C300.219 192.182 299.359 190.776 298.734 189.266C298.161 187.964 297.745 186.453 297.484 184.734C297.172 183.068 297.302 181.323 297.875 179.5C298.292 179.031 298.734 178.615 299.203 178.25C299.672 177.885 300.141 177.573 300.609 177.313C301.13 177 301.677 176.714 302.25 176.453C302.927 176.245 303.604 176.063 304.281 175.906C304.854 175.802 305.453 175.75 306.078 175.75C306.755 175.698 307.38 175.776 307.953 175.984C307.172 176.87 306.625 177.703 306.312 178.484C306.104 178.901 305.948 179.266 305.844 179.578C305.635 180.568 305.557 181.74 305.609 183.094C305.714 184.5 306 185.828 306.469 187.078C306.99 188.38 307.719 189.474 308.656 190.359C309.594 191.297 310.844 191.792 312.406 191.844C316.208 191.948 319.438 188.979 322.094 182.938C322.979 181.063 323.422 179.161 323.422 177.234C323.474 175.307 323.24 173.458 322.719 171.688C322.25 169.917 321.599 168.276 320.766 166.766C319.984 165.203 319.177 163.875 318.344 162.781C317.51 161.688 316.495 160.516 315.297 159.266C314.151 157.964 313.005 156.557 311.859 155.047C310.714 153.536 309.672 151.896 308.734 150.125C307.849 148.354 307.25 146.427 306.938 144.344C306.521 141.427 306.781 138.771 307.719 136.375C308.708 133.927 310.01 131.792 311.625 129.969C313.292 128.146 315.089 126.661 317.016 125.516C318.995 124.37 320.74 123.641 322.25 123.328C330.635 121.661 336.13 123.068 338.734 127.547C339.828 129.266 340.427 131.089 340.531 133.016C340.635 134.943 340.505 136.74 340.141 138.406C339.828 140.021 339.411 141.401 338.891 142.547C338.422 143.641 338.109 144.24 337.953 144.344C337.641 144.656 337.146 144.995 336.469 145.359C335.792 145.724 334.698 146.063 333.188 146.375C332.771 146.479 332.354 146.531 331.938 146.531C331.573 146.531 331.182 146.505 330.766 146.453C330.349 146.401 329.984 146.297 329.672 146.141ZM348.656 183.25C346.677 183.25 345.062 182.938 343.812 182.313C342.562 181.688 341.573 180.932 340.844 180.047C340.167 179.109 339.672 178.12 339.359 177.078C339.099 175.984 338.969 174.995 338.969 174.109C338.969 172.547 339.099 170.906 339.359 169.188C339.62 167.417 339.932 165.802 340.297 164.344C340.661 162.833 340.974 161.557 341.234 160.516C341.547 159.474 341.755 158.823 341.859 158.563C342.328 157.052 342.927 155.75 343.656 154.656C344.438 153.51 345.505 152.729 346.859 152.313C347.38 152.208 347.927 152.104 348.5 152C348.969 151.948 349.438 151.922 349.906 151.922C350.427 151.922 350.896 152 351.312 152.156C349.906 155.75 348.786 158.745 347.953 161.141C347.172 163.536 346.573 165.49 346.156 167C345.688 168.719 345.401 170.099 345.297 171.141C345.036 173.484 345.245 175.255 345.922 176.453C346.599 177.651 347.979 178.25 350.062 178.25C351.417 178.25 352.719 177.755 353.969 176.766C355.219 175.724 356.365 174.396 357.406 172.781C357.25 171.948 357.172 171.089 357.172 170.203C357.172 168.536 357.302 166.922 357.562 165.359C357.875 163.745 358.214 162.26 358.578 160.906C358.995 159.5 359.411 158.25 359.828 157.156C360.297 156.063 360.688 155.203 361 154.578C361.573 153.328 362.094 152.573 362.562 152.313C363.031 152 363.786 151.818 364.828 151.766C365.245 151.714 365.583 151.714 365.844 151.766C366.156 151.766 366.417 151.792 366.625 151.844C367.25 152 367.562 152.313 367.562 152.781C367.562 153.615 367.51 154.865 367.406 156.531C367.302 158.198 366.99 159.917 366.469 161.688C366.104 163.146 365.74 164.396 365.375 165.438C365.062 166.427 364.75 167.286 364.438 168.016C364.125 168.693 363.812 169.266 363.5 169.734C363.188 170.151 362.901 170.542 362.641 170.906C362.745 172.469 362.875 173.719 363.031 174.656C363.188 175.594 363.37 176.323 363.578 176.844C363.839 177.313 364.125 177.651 364.438 177.859C364.802 178.016 365.193 178.094 365.609 178.094C366.339 178.094 367.198 177.755 368.188 177.078C369.177 176.349 370.193 175.464 371.234 174.422C372.328 173.328 373.396 172.156 374.438 170.906C375.531 169.604 376.521 168.38 377.406 167.234C378.292 166.089 379.047 165.099 379.672 164.266C380.297 163.38 380.688 162.833 380.844 162.625C381.208 162.156 381.547 161.87 381.859 161.766C382.224 161.661 382.51 161.714 382.719 161.922C382.927 162.078 383.031 162.365 383.031 162.781C383.083 163.146 382.979 163.563 382.719 164.031C381.677 166.01 380.375 168.12 378.812 170.359C377.302 172.547 375.661 174.578 373.891 176.453C372.172 178.328 370.427 179.891 368.656 181.141C366.885 182.391 365.219 183.016 363.656 183.016C362.25 183.016 361.13 182.547 360.297 181.609C359.516 180.62 358.839 179.214 358.266 177.391C357.068 179.266 355.661 180.724 354.047 181.766C352.432 182.755 350.635 183.25 348.656 183.25ZM370.844 215.359C370.479 215.203 370.115 214.969 369.75 214.656C369.438 214.396 369.125 214.057 368.812 213.641C368.5 213.276 368.24 212.807 368.031 212.234C369.49 206.661 370.74 201.818 371.781 197.703C372.771 193.589 373.63 190.151 374.359 187.391C375.141 184.161 375.818 181.453 376.391 179.266C376.911 177.182 377.432 175.099 377.953 173.016C378.37 171.193 378.812 169.24 379.281 167.156C379.802 165.073 380.271 163.12 380.688 161.297C381.208 159.266 381.521 157.651 381.625 156.453C381.729 155.203 381.339 154.135 380.453 153.25C381.078 152.729 381.703 152.339 382.328 152.078C383.005 151.766 383.604 151.557 384.125 151.453C384.698 151.297 385.271 151.245 385.844 151.297C387.25 151.401 388.109 151.844 388.422 152.625C388.786 153.406 388.839 154.656 388.578 156.375C388.526 156.635 388.474 156.87 388.422 157.078C388.422 157.234 388.422 157.417 388.422 157.625C389.151 156.792 389.958 155.984 390.844 155.203C391.729 154.422 392.615 153.719 393.5 153.094C394.438 152.469 395.375 151.974 396.312 151.609C397.302 151.193 398.24 150.984 399.125 150.984C400.323 150.984 401.286 151.297 402.016 151.922C402.797 152.495 403.396 153.276 403.812 154.266C404.229 155.255 404.49 156.375 404.594 157.625C404.698 158.823 404.724 160.021 404.672 161.219C404.62 162.521 404.385 163.901 403.969 165.359C403.604 166.818 403.083 168.302 402.406 169.813C401.729 171.323 400.948 172.807 400.062 174.266C399.177 175.724 398.24 177.078 397.25 178.328C397.458 178.38 397.589 178.432 397.641 178.484C397.693 178.484 397.719 178.51 397.719 178.563C397.719 178.563 397.745 178.589 397.797 178.641C397.901 178.641 398.083 178.641 398.344 178.641C399.542 178.641 400.766 178.328 402.016 177.703C403.266 177.078 404.49 176.297 405.688 175.359C406.885 174.37 408.031 173.302 409.125 172.156C410.271 171.01 411.286 169.917 412.172 168.875C413.109 167.781 413.891 166.818 414.516 165.984C415.141 165.099 415.609 164.474 415.922 164.109C416.339 163.589 416.729 163.25 417.094 163.094C417.458 162.885 417.745 162.859 417.953 163.016C418.161 163.172 418.266 163.484 418.266 163.953C418.266 164.37 418.109 164.917 417.797 165.594C417.589 166.063 417.146 166.818 416.469 167.859C415.792 168.901 414.958 170.073 413.969 171.375C412.979 172.677 411.833 174.031 410.531 175.438C409.281 176.844 407.953 178.12 406.547 179.266C405.141 180.411 403.682 181.349 402.172 182.078C400.714 182.859 399.281 183.25 397.875 183.25C397.198 183.25 396.651 183.224 396.234 183.172C395.818 183.12 395.453 183.016 395.141 182.859C394.88 182.755 394.62 182.625 394.359 182.469C394.099 182.365 393.786 182.234 393.422 182.078C392.484 182.807 391.521 183.354 390.531 183.719C389.542 184.135 388.578 184.344 387.641 184.344C386.755 184.344 385.974 184.188 385.297 183.875C384.672 183.615 384.151 183.224 383.734 182.703C383.318 182.234 382.979 181.714 382.719 181.141C382.458 180.516 382.25 179.917 382.094 179.344C382.042 179.552 381.99 179.734 381.938 179.891C381.938 180.047 381.911 180.255 381.859 180.516C381.234 183.016 380.583 185.906 379.906 189.188C379.333 192 378.63 195.411 377.797 199.422C377.016 203.484 376.182 208.094 375.297 213.25C374.984 214.656 374.438 215.464 373.656 215.672C372.823 215.88 371.885 215.776 370.844 215.359ZM385.141 166.922C384.88 167.807 384.594 168.849 384.281 170.047C384.021 171.193 383.708 172.573 383.344 174.188C383.76 173.875 384.229 173.641 384.75 173.484C385.271 173.328 385.792 173.25 386.312 173.25C386.885 173.25 387.615 173.563 388.5 174.188C389.385 174.76 390.453 175.385 391.703 176.063C392.484 175.125 393.292 174.083 394.125 172.938C395.01 171.74 395.792 170.516 396.469 169.266C397.198 168.016 397.797 166.74 398.266 165.438C398.786 164.135 399.073 162.885 399.125 161.688C399.229 160.125 399.047 158.901 398.578 158.016C398.109 157.13 397.328 156.688 396.234 156.688C394.62 156.688 392.849 157.651 390.922 159.578C389.047 161.453 387.12 163.901 385.141 166.922ZM447.953 165.75C446.391 168.042 444.62 170.281 442.641 172.469C440.661 174.604 438.552 176.531 436.312 178.25C434.125 179.917 431.859 181.271 429.516 182.313C427.224 183.354 424.984 183.875 422.797 183.875C421.651 183.875 420.401 183.589 419.047 183.016C417.745 182.495 416.547 181.661 415.453 180.516C414.359 179.37 413.474 177.885 412.797 176.063C412.172 174.24 411.99 172.026 412.25 169.422C412.458 167.286 413.109 165.047 414.203 162.703C415.349 160.307 416.729 158.12 418.344 156.141C420.01 154.161 421.859 152.521 423.891 151.219C425.974 149.917 428.057 149.266 430.141 149.266C432.12 149.266 433.552 149.76 434.438 150.75C435.323 151.74 435.714 152.964 435.609 154.422C435.453 156.036 434.984 157.521 434.203 158.875C433.474 160.229 432.589 161.453 431.547 162.547C430.505 163.641 429.385 164.63 428.188 165.516C427.042 166.401 425.948 167.208 424.906 167.938C423.76 168.719 422.667 169.474 421.625 170.203C420.583 170.88 419.672 171.505 418.891 172.078C418.943 173.38 419.177 174.474 419.594 175.359C420.01 176.245 420.531 176.974 421.156 177.547C421.781 178.068 422.484 178.458 423.266 178.719C424.099 178.927 424.932 179.031 425.766 179.031C427.536 179.031 429.385 178.484 431.312 177.391C433.24 176.245 435.115 174.891 436.938 173.328C438.812 171.714 440.531 170.047 442.094 168.328C443.708 166.609 445.036 165.125 446.078 163.875C446.443 163.458 446.807 163.224 447.172 163.172C447.589 163.068 447.901 163.12 448.109 163.328C448.37 163.484 448.5 163.797 448.5 164.266C448.5 164.682 448.318 165.177 447.953 165.75ZM427.953 153.719C427.328 153.719 426.573 154.031 425.688 154.656C424.854 155.281 424.021 156.193 423.188 157.391C422.354 158.536 421.573 159.969 420.844 161.688C420.115 163.354 419.568 165.281 419.203 167.469C419.828 167 420.505 166.531 421.234 166.063C421.964 165.542 422.693 164.995 423.422 164.422C425.661 162.703 427.224 161.193 428.109 159.891C428.995 158.589 429.49 157.469 429.594 156.531C429.698 155.542 429.594 154.839 429.281 154.422C428.969 153.953 428.526 153.719 427.953 153.719ZM439.359 181.609C438.995 182.182 438.604 182.547 438.188 182.703C437.719 182.911 437.328 182.938 437.016 182.781C436.651 182.677 436.417 182.417 436.312 182C436.208 181.583 436.312 181.063 436.625 180.438C436.781 180.125 437.146 179.422 437.719 178.328C438.24 177.234 438.891 175.932 439.672 174.422C440.401 172.859 441.208 171.193 442.094 169.422C442.979 167.599 443.812 165.88 444.594 164.266C445.427 162.651 446.182 161.219 446.859 159.969C447.536 158.667 448.031 157.729 448.344 157.156C447.771 156.635 447.38 156.271 447.172 156.063C446.964 155.802 446.807 155.281 446.703 154.5C446.599 153.823 446.755 152.938 447.172 151.844C447.589 150.75 448.135 149.708 448.812 148.719C449.49 147.677 450.245 146.792 451.078 146.063C451.911 145.333 452.719 144.969 453.5 144.969C454.958 144.969 455.974 145.438 456.547 146.375C457.172 147.313 457.536 148.276 457.641 149.266C457.745 149.943 457.693 150.802 457.484 151.844C457.276 152.885 456.885 153.823 456.312 154.656C456.469 154.76 456.677 154.891 456.938 155.047C457.198 155.151 457.615 155.203 458.188 155.203C459.021 155.203 459.594 155.151 459.906 155.047C460.271 154.943 460.818 154.891 461.547 154.891C462.432 154.891 463.161 155.125 463.734 155.594C464.307 156.01 464.776 156.557 465.141 157.234C465.505 157.859 465.766 158.563 465.922 159.344C466.13 160.073 466.26 160.75 466.312 161.375C466.469 162.677 466.13 164.031 465.297 165.438C464.464 166.844 463.448 168.38 462.25 170.047C461.521 171.089 460.792 172.26 460.062 173.563C459.333 174.865 459.021 176.036 459.125 177.078C459.229 177.755 459.411 178.302 459.672 178.719C459.932 179.135 460.661 179.344 461.859 179.344C462.745 179.344 463.708 179.031 464.75 178.406C465.844 177.729 466.938 176.896 468.031 175.906C469.177 174.865 470.297 173.745 471.391 172.547C472.484 171.297 473.5 170.099 474.438 168.953C475.375 167.755 476.156 166.688 476.781 165.75C477.458 164.813 477.953 164.135 478.266 163.719C478.526 163.302 478.865 163.016 479.281 162.859C479.698 162.703 480.062 162.703 480.375 162.859C480.688 163.016 480.87 163.328 480.922 163.797C481.026 164.266 480.844 164.891 480.375 165.672C480.062 166.193 479.516 167.026 478.734 168.172C478.005 169.318 477.094 170.594 476 172C474.958 173.406 473.786 174.865 472.484 176.375C471.182 177.833 469.802 179.188 468.344 180.438C466.938 181.635 465.505 182.625 464.047 183.406C462.641 184.188 461.286 184.578 459.984 184.578C458.63 184.578 457.51 184.318 456.625 183.797C455.74 183.276 455.01 182.651 454.438 181.922C453.917 181.141 453.526 180.307 453.266 179.422C453.057 178.484 452.979 177.625 453.031 176.844C453.083 176.219 453.24 175.568 453.5 174.891C453.812 174.161 454.151 173.432 454.516 172.703C454.932 171.922 455.349 171.167 455.766 170.438C456.234 169.656 456.651 168.901 457.016 168.172C457.901 166.661 458.604 165.385 459.125 164.344C459.698 163.25 459.984 162.339 459.984 161.609C459.984 161.141 459.88 160.724 459.672 160.359C459.464 159.995 459.125 159.813 458.656 159.813C458.344 159.813 458.109 159.839 457.953 159.891C457.849 159.891 457.719 159.891 457.562 159.891C457.458 159.891 457.276 159.917 457.016 159.969C456.807 159.969 456.469 159.969 456 159.969C455.323 159.969 454.75 159.865 454.281 159.656C453.812 159.448 453.37 159.292 452.953 159.188C452.745 159.552 452.276 160.333 451.547 161.531C450.818 162.729 449.958 164.135 448.969 165.75C448.031 167.365 447.016 169.057 445.922 170.828C444.88 172.599 443.891 174.266 442.953 175.828C442.016 177.339 441.234 178.641 440.609 179.734C439.932 180.776 439.516 181.401 439.359 181.609ZM504.75 154.5C505.844 152.313 506.938 150.151 508.031 148.016C509.125 145.828 510.115 143.797 511 141.922C511.885 140.047 512.641 138.38 513.266 136.922C513.891 135.411 514.255 134.214 514.359 133.328C514.464 132.391 514.385 131.583 514.125 130.906C513.865 130.229 513.422 129.682 512.797 129.266C512.224 128.849 511.521 128.536 510.688 128.328C509.906 128.068 509.021 127.911 508.031 127.859C506.312 127.755 504.255 127.807 501.859 128.016C499.516 128.172 497.25 128.51 495.062 129.031C492.875 129.5 490.974 130.177 489.359 131.063C487.797 131.948 486.964 133.042 486.859 134.344C486.807 135.073 486.938 135.724 487.25 136.297C487.51 136.766 487.979 137.208 488.656 137.625C489.385 138.042 490.453 138.198 491.859 138.094C492.12 138.094 492.432 138.068 492.797 138.016C493.109 137.964 493.5 137.911 493.969 137.859C494.438 137.755 494.984 137.625 495.609 137.469L491.781 142.625C491.052 143.667 490.271 144.292 489.438 144.5C488.604 144.708 487.849 144.76 487.172 144.656C486.807 144.604 486.078 144.422 484.984 144.109C483.943 143.797 482.875 143.328 481.781 142.703C480.74 142.078 479.828 141.245 479.047 140.203C478.266 139.109 477.953 137.755 478.109 136.141C478.318 134.266 479.125 132.547 480.531 130.984C481.938 129.37 483.891 127.99 486.391 126.844C488.943 125.698 491.964 124.813 495.453 124.188C498.995 123.563 502.979 123.25 507.406 123.25C510.74 123.25 513.396 123.615 515.375 124.344C517.354 125.021 518.786 125.932 519.672 127.078C520.609 128.172 521.052 129.474 521 130.984C521 132.443 520.688 133.953 520.062 135.516C519.75 136.245 519.281 137.26 518.656 138.563C518.083 139.813 517.38 141.297 516.547 143.016C515.714 144.682 514.828 146.531 513.891 148.563C512.953 150.594 512.016 152.703 511.078 154.891C512.484 154.995 513.76 155.125 514.906 155.281C516.104 155.438 517.042 155.568 517.719 155.672C518.5 155.88 518.76 156.219 518.5 156.688C518.031 157.625 517.562 158.328 517.094 158.797C516.677 159.266 516.208 159.604 515.688 159.813C515.167 159.969 514.594 160.047 513.969 160.047C513.344 159.995 512.641 159.943 511.859 159.891C511.391 159.891 510.922 159.891 510.453 159.891C509.984 159.839 509.49 159.786 508.969 159.734C507.979 162.078 507.016 164.396 506.078 166.688C505.193 168.979 504.359 171.167 503.578 173.25C502.849 175.281 502.198 177.156 501.625 178.875C501.052 180.594 500.661 182.026 500.453 183.172C500.141 184.786 499.906 186.297 499.75 187.703C499.646 188.901 499.594 190.151 499.594 191.453C499.594 192.755 499.802 193.797 500.219 194.578C499.125 194.891 498.161 195.151 497.328 195.359C496.547 195.568 495.87 195.724 495.297 195.828C494.672 195.984 494.151 196.115 493.734 196.219C492.276 196.583 491.234 196.531 490.609 196.063C490.036 195.646 489.88 194.604 490.141 192.938C490.245 191.792 490.401 190.49 490.609 189.031C490.87 187.625 491.234 186.01 491.703 184.188C492.224 182.417 492.875 180.438 493.656 178.25C494.49 176.01 495.531 173.536 496.781 170.828C497.51 169.266 498.344 167.547 499.281 165.672C500.219 163.745 501.208 161.688 502.25 159.5C499.958 159.5 497.484 159.656 494.828 159.969C493.37 160.177 491.938 160.411 490.531 160.672C489.333 160.932 488.031 161.245 486.625 161.609C485.271 161.922 483.995 162.286 482.797 162.703C482.641 162.286 482.536 161.87 482.484 161.453C482.484 161.036 482.51 160.646 482.562 160.281C482.615 159.917 482.693 159.552 482.797 159.188C482.901 158.823 483.057 158.458 483.266 158.094C483.578 157.469 484.073 156.688 484.75 155.75C487.198 155.438 489.542 155.203 491.781 155.047C494.021 154.891 496 154.76 497.719 154.656C499.75 154.552 501.651 154.5 503.422 154.5C503.682 154.448 503.891 154.448 504.047 154.5C504.255 154.5 504.49 154.5 504.75 154.5ZM520.531 180.75C522.823 171.115 524.646 163.38 526 157.547C527.406 151.714 528.474 147.26 529.203 144.188C530.036 140.542 530.609 138.016 530.922 136.609C531.078 135.62 531.208 134.656 531.312 133.719C531.417 132.885 531.469 132.026 531.469 131.141C531.469 130.255 531.391 129.448 531.234 128.719C531.651 128.458 532.094 128.25 532.562 128.094C533.083 127.938 533.578 127.807 534.047 127.703C534.62 127.547 535.193 127.417 535.766 127.313C536.339 127.208 536.859 127.156 537.328 127.156C537.745 127.156 538.135 127.208 538.5 127.313C538.865 127.365 539.099 127.521 539.203 127.781C539.516 128.042 539.646 128.563 539.594 129.344C539.594 130.125 539.542 130.932 539.438 131.766C539.229 132.755 538.995 133.823 538.734 134.969C538.109 137.208 537.25 140.438 536.156 144.656C535.219 148.25 533.943 153.146 532.328 159.344C530.766 165.542 528.786 173.354 526.391 182.781C526.13 183.042 525.818 183.224 525.453 183.328C525.089 183.432 524.75 183.484 524.438 183.484C524.073 183.484 523.682 183.458 523.266 183.406C522.901 183.302 522.536 183.146 522.172 182.938C521.859 182.729 521.547 182.443 521.234 182.078C520.922 181.766 520.688 181.323 520.531 180.75ZM559.75 153.25C560.427 152.729 561.078 152.339 561.703 152.078C562.38 151.766 562.979 151.557 563.5 151.453C564.073 151.297 564.646 151.245 565.219 151.297C566.625 151.401 567.484 151.844 567.797 152.625C568.161 153.406 568.214 154.656 567.953 156.375C567.797 157.26 567.484 158.38 567.016 159.734C566.547 161.089 566 162.755 565.375 164.734C564.75 166.661 564.073 168.875 563.344 171.375C562.667 173.875 562.016 176.688 561.391 179.813C560.766 182.365 560.089 185.307 559.359 188.641C558.734 191.557 557.979 195.073 557.094 199.188C556.26 203.302 555.349 208.016 554.359 213.328C554.099 214.63 553.526 215.385 552.641 215.594C551.807 215.802 550.922 215.698 549.984 215.281C549.62 215.073 549.281 214.839 548.969 214.578C548.708 214.318 548.422 214.005 548.109 213.641C547.797 213.328 547.536 212.885 547.328 212.313C548.526 207.938 549.568 203.953 550.453 200.359C551.391 196.766 552.224 193.641 552.953 190.984C553.734 187.911 554.464 185.151 555.141 182.703C555.401 181.609 555.635 180.542 555.844 179.5C556.104 178.406 556.365 177.339 556.625 176.297C555.948 177.391 555.219 178.432 554.438 179.422C553.656 180.411 552.797 181.271 551.859 182C550.922 182.729 549.906 183.276 548.812 183.641C547.771 184.057 546.677 184.188 545.531 184.031C542.719 183.667 540.714 182.625 539.516 180.906C538.37 179.188 537.875 176.948 538.031 174.188C538.083 173.094 538.24 171.896 538.5 170.594C538.76 169.292 539.047 168.042 539.359 166.844C539.672 165.646 539.958 164.578 540.219 163.641C540.531 162.651 540.766 161.948 540.922 161.531C541.547 159.552 541.99 157.859 542.25 156.453C542.562 155.047 542.354 153.875 541.625 152.938C542.354 152.469 543.031 152.156 543.656 152C544.333 151.792 544.932 151.635 545.453 151.531C546.026 151.479 546.599 151.479 547.172 151.531C548.578 151.74 549.385 152.26 549.594 153.094C549.854 153.927 549.776 155.177 549.359 156.844C549.151 157.729 548.812 158.875 548.344 160.281C547.875 161.635 547.38 163.042 546.859 164.5C546.339 165.958 545.87 167.313 545.453 168.563C545.036 169.76 544.802 170.62 544.75 171.141C544.281 173.484 544.255 175.307 544.672 176.609C545.089 177.859 546 178.484 547.406 178.484C548.083 178.484 548.839 178.198 549.672 177.625C550.505 177 551.339 176.193 552.172 175.203C553.057 174.214 553.917 173.094 554.75 171.844C555.583 170.542 556.339 169.24 557.016 167.938C557.745 166.635 558.37 165.359 558.891 164.109C559.464 162.859 559.88 161.74 560.141 160.75C560.505 158.823 560.74 157.313 560.844 156.219C560.948 155.125 560.583 154.135 559.75 153.25Z" fill="#26C4C4"/>
</svg>
