<svg width="595" height="842" viewBox="0 0 595 842" fill="none" xmlns="http://www.w3.org/2000/svg">
<rect width="595" height="842" fill="#E5E5E5"/>
<rect width="595" height="842" fill="white"/>
<path d="M94.166 449.036C69.0689 432.412 42.8341 417.496 14.9082 406.896C35.2316 400.734 55.6416 390.47 75.3841 381.789C105.554 368.522 136.311 386.38 158.701 406.386C180.284 425.673 202.811 443.399 228.083 457.187C244.344 466.058 258.719 469.255 277.069 465.879C278.065 465.696 290.505 461.615 291.446 464.122C293.071 468.449 282.588 485.084 280.062 488.614C265.705 508.67 241.932 511.119 217.877 513.05C189.036 515.365 164.169 509.268 141.964 491.747C124.921 478.299 112.527 461.198 94.166 449.036Z" fill="#149494"/>
<path d="M141.778 594.615C121.029 596.025 100.284 598.736 80.2248 604.274C89.5009 593.269 97.2536 580.168 105.231 568.123C117.421 549.716 141.885 546.723 162.381 548.067C182.139 549.362 201.839 549.507 221.6 546.603C234.316 544.734 243.774 540.748 252.988 531.911C253.489 531.431 259.049 524.54 260.549 525.433C263.139 526.976 263.515 539.416 263.422 542.173C262.891 557.841 260.353 569.625 247.317 579.956C231.688 592.342 204.97 597.65 185.534 597.484C170.615 597.356 156.958 593.583 141.778 594.615Z" fill="#89DCDC"/>
<path d="M107.301 529.387C81.5192 523.731 55.2798 519.661 28.8722 519.28C44.0853 509.168 58.1869 495.962 72.1871 484.121C93.5815 466.027 124.451 471.075 148.945 479.997C172.558 488.597 196.508 495.774 221.617 499.259C237.773 501.502 250.714 500.007 265.081 492.514C265.861 492.107 275.084 485.687 276.595 487.309C279.202 490.109 275.239 505.4 274.146 508.726C267.931 527.626 260.651 541.081 241.096 549.035C217.652 558.571 183.213 555.544 159.591 548.433C141.46 542.976 126.162 533.526 107.301 529.387Z" fill="#26C4C4"/>
<path d="M329.672 502.141C329.62 501.984 329.776 501.594 330.141 500.969C330.505 500.292 330.896 499.484 331.312 498.547C331.781 497.557 332.224 496.464 332.641 495.266C333.109 494.016 333.422 492.74 333.578 491.438C333.786 490.135 333.786 488.833 333.578 487.531C333.37 486.229 332.823 484.979 331.938 483.781C331.417 483.156 330.635 482.818 329.594 482.766C328.604 482.661 327.458 482.818 326.156 483.234C324.906 483.599 323.578 484.198 322.172 485.031C320.818 485.813 319.568 486.75 318.422 487.844C317.276 488.885 316.286 490.057 315.453 491.359C314.672 492.661 314.229 493.99 314.125 495.344C314.021 496.438 314.047 497.453 314.203 498.391C314.411 499.328 314.672 500.188 314.984 500.969C315.297 501.75 315.635 502.479 316 503.156C316.365 503.833 316.703 504.432 317.016 504.953C317.432 505.682 318.083 506.49 318.969 507.375C319.854 508.26 320.818 509.276 321.859 510.422C322.901 511.516 323.943 512.766 324.984 514.172C326.026 515.578 326.938 517.167 327.719 518.938C328.5 520.708 329.047 522.688 329.359 524.875C329.672 527.063 329.646 529.484 329.281 532.141C328.708 535.995 327.797 539.198 326.547 541.75C325.297 544.354 323.917 546.438 322.406 548C320.948 549.563 319.464 550.682 317.953 551.359C316.443 552.089 315.193 552.557 314.203 552.766C313.422 552.922 312.484 553.052 311.391 553.156C310.349 553.313 309.229 553.286 308.031 553.078C306.885 552.922 305.714 552.557 304.516 551.984C303.318 551.464 302.25 550.63 301.312 549.484C300.219 548.182 299.359 546.776 298.734 545.266C298.161 543.964 297.745 542.453 297.484 540.734C297.172 539.068 297.302 537.323 297.875 535.5C298.292 535.031 298.734 534.615 299.203 534.25C299.672 533.885 300.141 533.573 300.609 533.313C301.13 533 301.677 532.714 302.25 532.453C302.927 532.245 303.604 532.063 304.281 531.906C304.854 531.802 305.453 531.75 306.078 531.75C306.755 531.698 307.38 531.776 307.953 531.984C307.172 532.87 306.625 533.703 306.312 534.484C306.104 534.901 305.948 535.266 305.844 535.578C305.635 536.568 305.557 537.74 305.609 539.094C305.714 540.5 306 541.828 306.469 543.078C306.99 544.38 307.719 545.474 308.656 546.359C309.594 547.297 310.844 547.792 312.406 547.844C316.208 547.948 319.438 544.979 322.094 538.938C322.979 537.063 323.422 535.161 323.422 533.234C323.474 531.307 323.24 529.458 322.719 527.688C322.25 525.917 321.599 524.276 320.766 522.766C319.984 521.203 319.177 519.875 318.344 518.781C317.51 517.688 316.495 516.516 315.297 515.266C314.151 513.964 313.005 512.557 311.859 511.047C310.714 509.536 309.672 507.896 308.734 506.125C307.849 504.354 307.25 502.427 306.938 500.344C306.521 497.427 306.781 494.771 307.719 492.375C308.708 489.927 310.01 487.792 311.625 485.969C313.292 484.146 315.089 482.661 317.016 481.516C318.995 480.37 320.74 479.641 322.25 479.328C330.635 477.661 336.13 479.068 338.734 483.547C339.828 485.266 340.427 487.089 340.531 489.016C340.635 490.943 340.505 492.74 340.141 494.406C339.828 496.021 339.411 497.401 338.891 498.547C338.422 499.641 338.109 500.24 337.953 500.344C337.641 500.656 337.146 500.995 336.469 501.359C335.792 501.724 334.698 502.063 333.188 502.375C332.771 502.479 332.354 502.531 331.938 502.531C331.573 502.531 331.182 502.505 330.766 502.453C330.349 502.401 329.984 502.297 329.672 502.141ZM348.656 539.25C346.677 539.25 345.062 538.938 343.812 538.313C342.562 537.688 341.573 536.932 340.844 536.047C340.167 535.109 339.672 534.12 339.359 533.078C339.099 531.984 338.969 530.995 338.969 530.109C338.969 528.547 339.099 526.906 339.359 525.188C339.62 523.417 339.932 521.802 340.297 520.344C340.661 518.833 340.974 517.557 341.234 516.516C341.547 515.474 341.755 514.823 341.859 514.563C342.328 513.052 342.927 511.75 343.656 510.656C344.438 509.51 345.505 508.729 346.859 508.313C347.38 508.208 347.927 508.104 348.5 508C348.969 507.948 349.438 507.922 349.906 507.922C350.427 507.922 350.896 508 351.312 508.156C349.906 511.75 348.786 514.745 347.953 517.141C347.172 519.536 346.573 521.49 346.156 523C345.688 524.719 345.401 526.099 345.297 527.141C345.036 529.484 345.245 531.255 345.922 532.453C346.599 533.651 347.979 534.25 350.062 534.25C351.417 534.25 352.719 533.755 353.969 532.766C355.219 531.724 356.365 530.396 357.406 528.781C357.25 527.948 357.172 527.089 357.172 526.203C357.172 524.536 357.302 522.922 357.562 521.359C357.875 519.745 358.214 518.26 358.578 516.906C358.995 515.5 359.411 514.25 359.828 513.156C360.297 512.063 360.688 511.203 361 510.578C361.573 509.328 362.094 508.573 362.562 508.313C363.031 508 363.786 507.818 364.828 507.766C365.245 507.714 365.583 507.714 365.844 507.766C366.156 507.766 366.417 507.792 366.625 507.844C367.25 508 367.562 508.313 367.562 508.781C367.562 509.615 367.51 510.865 367.406 512.531C367.302 514.198 366.99 515.917 366.469 517.688C366.104 519.146 365.74 520.396 365.375 521.438C365.062 522.427 364.75 523.286 364.438 524.016C364.125 524.693 363.812 525.266 363.5 525.734C363.188 526.151 362.901 526.542 362.641 526.906C362.745 528.469 362.875 529.719 363.031 530.656C363.188 531.594 363.37 532.323 363.578 532.844C363.839 533.313 364.125 533.651 364.438 533.859C364.802 534.016 365.193 534.094 365.609 534.094C366.339 534.094 367.198 533.755 368.188 533.078C369.177 532.349 370.193 531.464 371.234 530.422C372.328 529.328 373.396 528.156 374.438 526.906C375.531 525.604 376.521 524.38 377.406 523.234C378.292 522.089 379.047 521.099 379.672 520.266C380.297 519.38 380.688 518.833 380.844 518.625C381.208 518.156 381.547 517.87 381.859 517.766C382.224 517.661 382.51 517.714 382.719 517.922C382.927 518.078 383.031 518.365 383.031 518.781C383.083 519.146 382.979 519.563 382.719 520.031C381.677 522.01 380.375 524.12 378.812 526.359C377.302 528.547 375.661 530.578 373.891 532.453C372.172 534.328 370.427 535.891 368.656 537.141C366.885 538.391 365.219 539.016 363.656 539.016C362.25 539.016 361.13 538.547 360.297 537.609C359.516 536.62 358.839 535.214 358.266 533.391C357.068 535.266 355.661 536.724 354.047 537.766C352.432 538.755 350.635 539.25 348.656 539.25ZM370.844 571.359C370.479 571.203 370.115 570.969 369.75 570.656C369.438 570.396 369.125 570.057 368.812 569.641C368.5 569.276 368.24 568.807 368.031 568.234C369.49 562.661 370.74 557.818 371.781 553.703C372.771 549.589 373.63 546.151 374.359 543.391C375.141 540.161 375.818 537.453 376.391 535.266C376.911 533.182 377.432 531.099 377.953 529.016C378.37 527.193 378.812 525.24 379.281 523.156C379.802 521.073 380.271 519.12 380.688 517.297C381.208 515.266 381.521 513.651 381.625 512.453C381.729 511.203 381.339 510.135 380.453 509.25C381.078 508.729 381.703 508.339 382.328 508.078C383.005 507.766 383.604 507.557 384.125 507.453C384.698 507.297 385.271 507.245 385.844 507.297C387.25 507.401 388.109 507.844 388.422 508.625C388.786 509.406 388.839 510.656 388.578 512.375C388.526 512.635 388.474 512.87 388.422 513.078C388.422 513.234 388.422 513.417 388.422 513.625C389.151 512.792 389.958 511.984 390.844 511.203C391.729 510.422 392.615 509.719 393.5 509.094C394.438 508.469 395.375 507.974 396.312 507.609C397.302 507.193 398.24 506.984 399.125 506.984C400.323 506.984 401.286 507.297 402.016 507.922C402.797 508.495 403.396 509.276 403.812 510.266C404.229 511.255 404.49 512.375 404.594 513.625C404.698 514.823 404.724 516.021 404.672 517.219C404.62 518.521 404.385 519.901 403.969 521.359C403.604 522.818 403.083 524.302 402.406 525.813C401.729 527.323 400.948 528.807 400.062 530.266C399.177 531.724 398.24 533.078 397.25 534.328C397.458 534.38 397.589 534.432 397.641 534.484C397.693 534.484 397.719 534.51 397.719 534.563C397.719 534.563 397.745 534.589 397.797 534.641C397.901 534.641 398.083 534.641 398.344 534.641C399.542 534.641 400.766 534.328 402.016 533.703C403.266 533.078 404.49 532.297 405.688 531.359C406.885 530.37 408.031 529.302 409.125 528.156C410.271 527.01 411.286 525.917 412.172 524.875C413.109 523.781 413.891 522.818 414.516 521.984C415.141 521.099 415.609 520.474 415.922 520.109C416.339 519.589 416.729 519.25 417.094 519.094C417.458 518.885 417.745 518.859 417.953 519.016C418.161 519.172 418.266 519.484 418.266 519.953C418.266 520.37 418.109 520.917 417.797 521.594C417.589 522.063 417.146 522.818 416.469 523.859C415.792 524.901 414.958 526.073 413.969 527.375C412.979 528.677 411.833 530.031 410.531 531.438C409.281 532.844 407.953 534.12 406.547 535.266C405.141 536.411 403.682 537.349 402.172 538.078C400.714 538.859 399.281 539.25 397.875 539.25C397.198 539.25 396.651 539.224 396.234 539.172C395.818 539.12 395.453 539.016 395.141 538.859C394.88 538.755 394.62 538.625 394.359 538.469C394.099 538.365 393.786 538.234 393.422 538.078C392.484 538.807 391.521 539.354 390.531 539.719C389.542 540.135 388.578 540.344 387.641 540.344C386.755 540.344 385.974 540.188 385.297 539.875C384.672 539.615 384.151 539.224 383.734 538.703C383.318 538.234 382.979 537.714 382.719 537.141C382.458 536.516 382.25 535.917 382.094 535.344C382.042 535.552 381.99 535.734 381.938 535.891C381.938 536.047 381.911 536.255 381.859 536.516C381.234 539.016 380.583 541.906 379.906 545.188C379.333 548 378.63 551.411 377.797 555.422C377.016 559.484 376.182 564.094 375.297 569.25C374.984 570.656 374.438 571.464 373.656 571.672C372.823 571.88 371.885 571.776 370.844 571.359ZM385.141 522.922C384.88 523.807 384.594 524.849 384.281 526.047C384.021 527.193 383.708 528.573 383.344 530.188C383.76 529.875 384.229 529.641 384.75 529.484C385.271 529.328 385.792 529.25 386.312 529.25C386.885 529.25 387.615 529.563 388.5 530.188C389.385 530.76 390.453 531.385 391.703 532.063C392.484 531.125 393.292 530.083 394.125 528.938C395.01 527.74 395.792 526.516 396.469 525.266C397.198 524.016 397.797 522.74 398.266 521.438C398.786 520.135 399.073 518.885 399.125 517.688C399.229 516.125 399.047 514.901 398.578 514.016C398.109 513.13 397.328 512.688 396.234 512.688C394.62 512.688 392.849 513.651 390.922 515.578C389.047 517.453 387.12 519.901 385.141 522.922ZM447.953 521.75C446.391 524.042 444.62 526.281 442.641 528.469C440.661 530.604 438.552 532.531 436.312 534.25C434.125 535.917 431.859 537.271 429.516 538.313C427.224 539.354 424.984 539.875 422.797 539.875C421.651 539.875 420.401 539.589 419.047 539.016C417.745 538.495 416.547 537.661 415.453 536.516C414.359 535.37 413.474 533.885 412.797 532.063C412.172 530.24 411.99 528.026 412.25 525.422C412.458 523.286 413.109 521.047 414.203 518.703C415.349 516.307 416.729 514.12 418.344 512.141C420.01 510.161 421.859 508.521 423.891 507.219C425.974 505.917 428.057 505.266 430.141 505.266C432.12 505.266 433.552 505.76 434.438 506.75C435.323 507.74 435.714 508.964 435.609 510.422C435.453 512.036 434.984 513.521 434.203 514.875C433.474 516.229 432.589 517.453 431.547 518.547C430.505 519.641 429.385 520.63 428.188 521.516C427.042 522.401 425.948 523.208 424.906 523.938C423.76 524.719 422.667 525.474 421.625 526.203C420.583 526.88 419.672 527.505 418.891 528.078C418.943 529.38 419.177 530.474 419.594 531.359C420.01 532.245 420.531 532.974 421.156 533.547C421.781 534.068 422.484 534.458 423.266 534.719C424.099 534.927 424.932 535.031 425.766 535.031C427.536 535.031 429.385 534.484 431.312 533.391C433.24 532.245 435.115 530.891 436.938 529.328C438.812 527.714 440.531 526.047 442.094 524.328C443.708 522.609 445.036 521.125 446.078 519.875C446.443 519.458 446.807 519.224 447.172 519.172C447.589 519.068 447.901 519.12 448.109 519.328C448.37 519.484 448.5 519.797 448.5 520.266C448.5 520.682 448.318 521.177 447.953 521.75ZM427.953 509.719C427.328 509.719 426.573 510.031 425.688 510.656C424.854 511.281 424.021 512.193 423.188 513.391C422.354 514.536 421.573 515.969 420.844 517.688C420.115 519.354 419.568 521.281 419.203 523.469C419.828 523 420.505 522.531 421.234 522.063C421.964 521.542 422.693 520.995 423.422 520.422C425.661 518.703 427.224 517.193 428.109 515.891C428.995 514.589 429.49 513.469 429.594 512.531C429.698 511.542 429.594 510.839 429.281 510.422C428.969 509.953 428.526 509.719 427.953 509.719ZM439.359 537.609C438.995 538.182 438.604 538.547 438.188 538.703C437.719 538.911 437.328 538.938 437.016 538.781C436.651 538.677 436.417 538.417 436.312 538C436.208 537.583 436.312 537.063 436.625 536.438C436.781 536.125 437.146 535.422 437.719 534.328C438.24 533.234 438.891 531.932 439.672 530.422C440.401 528.859 441.208 527.193 442.094 525.422C442.979 523.599 443.812 521.88 444.594 520.266C445.427 518.651 446.182 517.219 446.859 515.969C447.536 514.667 448.031 513.729 448.344 513.156C447.771 512.635 447.38 512.271 447.172 512.063C446.964 511.802 446.807 511.281 446.703 510.5C446.599 509.823 446.755 508.938 447.172 507.844C447.589 506.75 448.135 505.708 448.812 504.719C449.49 503.677 450.245 502.792 451.078 502.063C451.911 501.333 452.719 500.969 453.5 500.969C454.958 500.969 455.974 501.438 456.547 502.375C457.172 503.313 457.536 504.276 457.641 505.266C457.745 505.943 457.693 506.802 457.484 507.844C457.276 508.885 456.885 509.823 456.312 510.656C456.469 510.76 456.677 510.891 456.938 511.047C457.198 511.151 457.615 511.203 458.188 511.203C459.021 511.203 459.594 511.151 459.906 511.047C460.271 510.943 460.818 510.891 461.547 510.891C462.432 510.891 463.161 511.125 463.734 511.594C464.307 512.01 464.776 512.557 465.141 513.234C465.505 513.859 465.766 514.563 465.922 515.344C466.13 516.073 466.26 516.75 466.312 517.375C466.469 518.677 466.13 520.031 465.297 521.438C464.464 522.844 463.448 524.38 462.25 526.047C461.521 527.089 460.792 528.26 460.062 529.563C459.333 530.865 459.021 532.036 459.125 533.078C459.229 533.755 459.411 534.302 459.672 534.719C459.932 535.135 460.661 535.344 461.859 535.344C462.745 535.344 463.708 535.031 464.75 534.406C465.844 533.729 466.938 532.896 468.031 531.906C469.177 530.865 470.297 529.745 471.391 528.547C472.484 527.297 473.5 526.099 474.438 524.953C475.375 523.755 476.156 522.688 476.781 521.75C477.458 520.813 477.953 520.135 478.266 519.719C478.526 519.302 478.865 519.016 479.281 518.859C479.698 518.703 480.062 518.703 480.375 518.859C480.688 519.016 480.87 519.328 480.922 519.797C481.026 520.266 480.844 520.891 480.375 521.672C480.062 522.193 479.516 523.026 478.734 524.172C478.005 525.318 477.094 526.594 476 528C474.958 529.406 473.786 530.865 472.484 532.375C471.182 533.833 469.802 535.188 468.344 536.438C466.938 537.635 465.505 538.625 464.047 539.406C462.641 540.188 461.286 540.578 459.984 540.578C458.63 540.578 457.51 540.318 456.625 539.797C455.74 539.276 455.01 538.651 454.438 537.922C453.917 537.141 453.526 536.307 453.266 535.422C453.057 534.484 452.979 533.625 453.031 532.844C453.083 532.219 453.24 531.568 453.5 530.891C453.812 530.161 454.151 529.432 454.516 528.703C454.932 527.922 455.349 527.167 455.766 526.438C456.234 525.656 456.651 524.901 457.016 524.172C457.901 522.661 458.604 521.385 459.125 520.344C459.698 519.25 459.984 518.339 459.984 517.609C459.984 517.141 459.88 516.724 459.672 516.359C459.464 515.995 459.125 515.813 458.656 515.813C458.344 515.813 458.109 515.839 457.953 515.891C457.849 515.891 457.719 515.891 457.562 515.891C457.458 515.891 457.276 515.917 457.016 515.969C456.807 515.969 456.469 515.969 456 515.969C455.323 515.969 454.75 515.865 454.281 515.656C453.812 515.448 453.37 515.292 452.953 515.188C452.745 515.552 452.276 516.333 451.547 517.531C450.818 518.729 449.958 520.135 448.969 521.75C448.031 523.365 447.016 525.057 445.922 526.828C444.88 528.599 443.891 530.266 442.953 531.828C442.016 533.339 441.234 534.641 440.609 535.734C439.932 536.776 439.516 537.401 439.359 537.609ZM504.75 510.5C505.844 508.313 506.938 506.151 508.031 504.016C509.125 501.828 510.115 499.797 511 497.922C511.885 496.047 512.641 494.38 513.266 492.922C513.891 491.411 514.255 490.214 514.359 489.328C514.464 488.391 514.385 487.583 514.125 486.906C513.865 486.229 513.422 485.682 512.797 485.266C512.224 484.849 511.521 484.536 510.688 484.328C509.906 484.068 509.021 483.911 508.031 483.859C506.312 483.755 504.255 483.807 501.859 484.016C499.516 484.172 497.25 484.51 495.062 485.031C492.875 485.5 490.974 486.177 489.359 487.063C487.797 487.948 486.964 489.042 486.859 490.344C486.807 491.073 486.938 491.724 487.25 492.297C487.51 492.766 487.979 493.208 488.656 493.625C489.385 494.042 490.453 494.198 491.859 494.094C492.12 494.094 492.432 494.068 492.797 494.016C493.109 493.964 493.5 493.911 493.969 493.859C494.438 493.755 494.984 493.625 495.609 493.469L491.781 498.625C491.052 499.667 490.271 500.292 489.438 500.5C488.604 500.708 487.849 500.76 487.172 500.656C486.807 500.604 486.078 500.422 484.984 500.109C483.943 499.797 482.875 499.328 481.781 498.703C480.74 498.078 479.828 497.245 479.047 496.203C478.266 495.109 477.953 493.755 478.109 492.141C478.318 490.266 479.125 488.547 480.531 486.984C481.938 485.37 483.891 483.99 486.391 482.844C488.943 481.698 491.964 480.813 495.453 480.188C498.995 479.563 502.979 479.25 507.406 479.25C510.74 479.25 513.396 479.615 515.375 480.344C517.354 481.021 518.786 481.932 519.672 483.078C520.609 484.172 521.052 485.474 521 486.984C521 488.443 520.688 489.953 520.062 491.516C519.75 492.245 519.281 493.26 518.656 494.563C518.083 495.813 517.38 497.297 516.547 499.016C515.714 500.682 514.828 502.531 513.891 504.563C512.953 506.594 512.016 508.703 511.078 510.891C512.484 510.995 513.76 511.125 514.906 511.281C516.104 511.438 517.042 511.568 517.719 511.672C518.5 511.88 518.76 512.219 518.5 512.688C518.031 513.625 517.562 514.328 517.094 514.797C516.677 515.266 516.208 515.604 515.688 515.813C515.167 515.969 514.594 516.047 513.969 516.047C513.344 515.995 512.641 515.943 511.859 515.891C511.391 515.891 510.922 515.891 510.453 515.891C509.984 515.839 509.49 515.786 508.969 515.734C507.979 518.078 507.016 520.396 506.078 522.688C505.193 524.979 504.359 527.167 503.578 529.25C502.849 531.281 502.198 533.156 501.625 534.875C501.052 536.594 500.661 538.026 500.453 539.172C500.141 540.786 499.906 542.297 499.75 543.703C499.646 544.901 499.594 546.151 499.594 547.453C499.594 548.755 499.802 549.797 500.219 550.578C499.125 550.891 498.161 551.151 497.328 551.359C496.547 551.568 495.87 551.724 495.297 551.828C494.672 551.984 494.151 552.115 493.734 552.219C492.276 552.583 491.234 552.531 490.609 552.063C490.036 551.646 489.88 550.604 490.141 548.938C490.245 547.792 490.401 546.49 490.609 545.031C490.87 543.625 491.234 542.01 491.703 540.188C492.224 538.417 492.875 536.438 493.656 534.25C494.49 532.01 495.531 529.536 496.781 526.828C497.51 525.266 498.344 523.547 499.281 521.672C500.219 519.745 501.208 517.688 502.25 515.5C499.958 515.5 497.484 515.656 494.828 515.969C493.37 516.177 491.938 516.411 490.531 516.672C489.333 516.932 488.031 517.245 486.625 517.609C485.271 517.922 483.995 518.286 482.797 518.703C482.641 518.286 482.536 517.87 482.484 517.453C482.484 517.036 482.51 516.646 482.562 516.281C482.615 515.917 482.693 515.552 482.797 515.188C482.901 514.823 483.057 514.458 483.266 514.094C483.578 513.469 484.073 512.688 484.75 511.75C487.198 511.438 489.542 511.203 491.781 511.047C494.021 510.891 496 510.76 497.719 510.656C499.75 510.552 501.651 510.5 503.422 510.5C503.682 510.448 503.891 510.448 504.047 510.5C504.255 510.5 504.49 510.5 504.75 510.5ZM520.531 536.75C522.823 527.115 524.646 519.38 526 513.547C527.406 507.714 528.474 503.26 529.203 500.188C530.036 496.542 530.609 494.016 530.922 492.609C531.078 491.62 531.208 490.656 531.312 489.719C531.417 488.885 531.469 488.026 531.469 487.141C531.469 486.255 531.391 485.448 531.234 484.719C531.651 484.458 532.094 484.25 532.562 484.094C533.083 483.938 533.578 483.807 534.047 483.703C534.62 483.547 535.193 483.417 535.766 483.313C536.339 483.208 536.859 483.156 537.328 483.156C537.745 483.156 538.135 483.208 538.5 483.313C538.865 483.365 539.099 483.521 539.203 483.781C539.516 484.042 539.646 484.563 539.594 485.344C539.594 486.125 539.542 486.932 539.438 487.766C539.229 488.755 538.995 489.823 538.734 490.969C538.109 493.208 537.25 496.438 536.156 500.656C535.219 504.25 533.943 509.146 532.328 515.344C530.766 521.542 528.786 529.354 526.391 538.781C526.13 539.042 525.818 539.224 525.453 539.328C525.089 539.432 524.75 539.484 524.438 539.484C524.073 539.484 523.682 539.458 523.266 539.406C522.901 539.302 522.536 539.146 522.172 538.938C521.859 538.729 521.547 538.443 521.234 538.078C520.922 537.766 520.688 537.323 520.531 536.75ZM559.75 509.25C560.427 508.729 561.078 508.339 561.703 508.078C562.38 507.766 562.979 507.557 563.5 507.453C564.073 507.297 564.646 507.245 565.219 507.297C566.625 507.401 567.484 507.844 567.797 508.625C568.161 509.406 568.214 510.656 567.953 512.375C567.797 513.26 567.484 514.38 567.016 515.734C566.547 517.089 566 518.755 565.375 520.734C564.75 522.661 564.073 524.875 563.344 527.375C562.667 529.875 562.016 532.688 561.391 535.813C560.766 538.365 560.089 541.307 559.359 544.641C558.734 547.557 557.979 551.073 557.094 555.188C556.26 559.302 555.349 564.016 554.359 569.328C554.099 570.63 553.526 571.385 552.641 571.594C551.807 571.802 550.922 571.698 549.984 571.281C549.62 571.073 549.281 570.839 548.969 570.578C548.708 570.318 548.422 570.005 548.109 569.641C547.797 569.328 547.536 568.885 547.328 568.313C548.526 563.938 549.568 559.953 550.453 556.359C551.391 552.766 552.224 549.641 552.953 546.984C553.734 543.911 554.464 541.151 555.141 538.703C555.401 537.609 555.635 536.542 555.844 535.5C556.104 534.406 556.365 533.339 556.625 532.297C555.948 533.391 555.219 534.432 554.438 535.422C553.656 536.411 552.797 537.271 551.859 538C550.922 538.729 549.906 539.276 548.812 539.641C547.771 540.057 546.677 540.188 545.531 540.031C542.719 539.667 540.714 538.625 539.516 536.906C538.37 535.188 537.875 532.948 538.031 530.188C538.083 529.094 538.24 527.896 538.5 526.594C538.76 525.292 539.047 524.042 539.359 522.844C539.672 521.646 539.958 520.578 540.219 519.641C540.531 518.651 540.766 517.948 540.922 517.531C541.547 515.552 541.99 513.859 542.25 512.453C542.562 511.047 542.354 509.875 541.625 508.938C542.354 508.469 543.031 508.156 543.656 508C544.333 507.792 544.932 507.635 545.453 507.531C546.026 507.479 546.599 507.479 547.172 507.531C548.578 507.74 549.385 508.26 549.594 509.094C549.854 509.927 549.776 511.177 549.359 512.844C549.151 513.729 548.812 514.875 548.344 516.281C547.875 517.635 547.38 519.042 546.859 520.5C546.339 521.958 545.87 523.313 545.453 524.563C545.036 525.76 544.802 526.62 544.75 527.141C544.281 529.484 544.255 531.307 544.672 532.609C545.089 533.859 546 534.484 547.406 534.484C548.083 534.484 548.839 534.198 549.672 533.625C550.505 533 551.339 532.193 552.172 531.203C553.057 530.214 553.917 529.094 554.75 527.844C555.583 526.542 556.339 525.24 557.016 523.938C557.745 522.635 558.37 521.359 558.891 520.109C559.464 518.859 559.88 517.74 560.141 516.75C560.505 514.823 560.74 513.313 560.844 512.219C560.948 511.125 560.583 510.135 559.75 509.25Z" fill="#26C4C4"/>
</svg>
